<?xml version="1.0" encoding="UTF-8"?>
<svg id="Layer_1" xmlns="http://www.w3.org/2000/svg" version="1.1" viewBox="0 0 20 20">
  <!-- Generator: Adobe Illustrator 29.0.1, SVG Export Plug-In . SVG Version: 2.1.0 Build 192)  -->
  <defs>
    <style>
      .st0 {
        fill: #22af4b;
      }

      .st1 {
        fill: #299b47;
      }

      .st2 {
        fill: #ec8f75;
      }

      .st3 {
        fill: #2cad4a;
      }

      .st4 {
        fill: #010101;
      }

      .st5 {
        fill: #23ad4b;
      }
    </style>
  </defs>
  <path class="st4" d="M15.02,9.46c.1.1.18.31.18.46v6.51c-.07.73-.56,1.29-1.3,1.38H2.9c-.73-.08-1.24-.66-1.3-1.38V5.63c.06-.73.57-1.29,1.3-1.38h7.91c.68.14.69,1.06,0,1.2H3.19c-.09,0-.29.03-.33.12l-.02,10.82c0,.11.07.17.16.21l10.61.02c.09,0,.29-.04.33-.12l.02-6.69c.1-.49.69-.7,1.05-.34Z"/>
  <path class="st2" d="M9.68,8.78c2.12-2,3.56-3.17,6.41-4.2.71-.26,1.89-.66,2.64-.7,1.13-.06,0,.61-.35.84-1.51.99-2.99,1.77-4.42,2.91-2.3,1.82-3.8,3.34-5.09,6.01-.07.21-.16.43-.29.62-.01.03-.03.05-.04.08,0,.08-.03.13-.08.16-.1.08-.1.22-.16.32-.01.03,0,.08-.07.05-.12-.05-.51-.46-.64-.58-.08-.02-.21-.15-.25-.25-.79-.74-1.63-1.28-2.39-1.95-.07-.06-.15-.06-.22-.15-.17-.24-.18-.79-.07-1.06.14-.33.39-.43.71-.51.15.02.3.02.45,0h.08c.21.09.48.28.67.41.27.19.58.46.79.61.06.04.21.19.25.21.07.03.06-.03.07-.05.1-.16.2-.43.36-.52.09-.06.11-.08.04-.08.07-.17.19-.38.29-.54.05-.04.1-.1.12-.16.2-.27.61-.67.74-.95.04-.07.09-.14.16-.21.01-.01.03-.03.04-.04l.25-.29Z"/>
  <path class="st1" d="M19.11,3.96c-.04.09-.25.02-.33.04.04-.09.25-.02.33-.04Z"/>
  <path class="st5" d="M12.23,6.64c-.03.07-.09.14-.16.12.03-.07.09-.14.16-.12Z"/>
  <path class="st3" d="M18.91,4.21l-.12.12c-.01-.08.05-.14.12-.12Z"/>
  <path class="st0" d="M15.24,6.56l-.12.12c-.01-.08.05-.14.12-.12Z"/>
</svg>