<svg width="292" height="51" viewBox="0 0 292 51" fill="none" xmlns="http://www.w3.org/2000/svg">
<g clip-path="url(#clip0_1_2)">
<path d="M268.135 0.0780029H23.8654C10.7252 0.0780029 0.072998 11.4598 0.072998 25.5C0.072998 39.5402 10.7252 50.922 23.8654 50.922H268.135C281.275 50.922 291.927 39.5402 291.927 25.5C291.927 11.4598 281.275 0.0780029 268.135 0.0780029Z" fill="url(#paint0_radial_1_2)" stroke="url(#paint1_linear_1_2)" stroke-width="0.156"/>
<path d="M263.848 5.42H28.1521C17.7731 5.42 9.35925 14.4101 9.35925 25.5C9.35925 36.5899 17.7731 45.58 28.1521 45.58H263.848C274.227 45.58 282.641 36.5899 282.641 25.5C282.641 14.4101 274.227 5.42 263.848 5.42Z" fill="url(#paint2_linear_1_2)" stroke="url(#paint3_linear_1_2)" stroke-width="2.34"/>
<path d="M263.848 5.03H28.1521C17.5715 5.03 8.99426 14.1947 8.99426 25.5C8.99426 36.8053 17.5715 45.97 28.1521 45.97H263.848C274.429 45.97 283.006 36.8053 283.006 25.5C283.006 14.1947 274.429 5.03 263.848 5.03Z" stroke="url(#paint4_linear_1_2)" stroke-width="1.56"/>
<g filter="url(#filter0_d_1_2)">
<path d="M47.6947 36V15.9333H56.4667C58.6453 15.9333 60.5564 16.3538 62.2 17.1947C63.8436 18.0356 65.124 19.2013 66.0413 20.692C66.9587 22.1827 67.4173 23.9409 67.4173 25.9667C67.4173 27.9733 66.9587 29.7316 66.0413 31.2413C65.124 32.732 63.8436 33.8978 62.2 34.7387C60.5564 35.5796 58.6453 36 56.4667 36H47.6947ZM51.4213 32.8467H56.2947C57.7853 32.8467 59.0849 32.56 60.1933 31.9867C61.3018 31.4133 62.1522 30.6107 62.7447 29.5787C63.3562 28.5467 63.662 27.3427 63.662 25.9667C63.662 24.5716 63.3562 23.3676 62.7447 22.3547C62.1522 21.3227 61.3018 20.52 60.1933 19.9467C59.0849 19.3733 57.7853 19.0867 56.2947 19.0867H51.4213V32.8467ZM76.4809 36.2007C74.9138 36.2007 73.5187 35.8662 72.2956 35.1973C71.0725 34.5093 70.1074 33.5729 69.4003 32.388C68.6932 31.2031 68.3396 29.8558 68.3396 28.346C68.3396 26.8171 68.6932 25.4698 69.4003 24.304C70.1074 23.1191 71.0725 22.1922 72.2956 21.5233C73.5187 20.8544 74.9138 20.52 76.4809 20.52C78.0672 20.52 79.4718 20.8544 80.6949 21.5233C81.9372 22.1922 82.9023 23.1096 83.5903 24.2753C84.2974 25.4411 84.6509 26.798 84.6509 28.346C84.6509 29.8558 84.2974 31.2031 83.5903 32.388C82.9023 33.5729 81.9372 34.5093 80.6949 35.1973C79.4718 35.8662 78.0672 36.2007 76.4809 36.2007ZM76.4809 33.1333C77.36 33.1333 78.1436 32.9422 78.8316 32.56C79.5196 32.1778 80.0547 31.6236 80.4369 30.8973C80.8383 30.1711 81.0389 29.3207 81.0389 28.346C81.0389 27.3522 80.8383 26.5018 80.4369 25.7947C80.0547 25.0684 79.5196 24.5142 78.8316 24.132C78.1436 23.7498 77.3696 23.5587 76.5096 23.5587C75.6305 23.5587 74.8469 23.7498 74.1589 24.132C73.49 24.5142 72.9549 25.0684 72.5536 25.7947C72.1523 26.5018 71.9516 27.3522 71.9516 28.346C71.9516 29.3207 72.1523 30.1711 72.5536 30.8973C72.9549 31.6236 73.49 32.1778 74.1589 32.56C74.8469 32.9422 75.6209 33.1333 76.4809 33.1333ZM89.6069 36L83.9882 20.692H87.3709L92.1869 34.194H90.5816L95.6269 20.692H98.6369L103.539 34.194H101.962L106.922 20.692H110.104L104.456 36H101.016L96.5442 24.046H97.6049L93.0469 36H89.6069ZM111.134 36V20.692H114.545V24.82L113.943 23.5587C114.478 22.584 115.252 21.8387 116.265 21.3227C117.297 20.7876 118.482 20.52 119.82 20.52C121.043 20.52 122.132 20.7589 123.088 21.2367C124.063 21.7144 124.827 22.4502 125.381 23.444C125.936 24.4187 126.213 25.68 126.213 27.228V36H122.629V27.6867C122.629 26.3298 122.304 25.3169 121.655 24.648C121.024 23.9791 120.135 23.6447 118.989 23.6447C118.148 23.6447 117.402 23.8167 116.753 24.1607C116.103 24.5047 115.596 25.0207 115.233 25.7087C114.889 26.3776 114.717 27.228 114.717 28.26V36H111.134ZM129.325 36V14.7293H132.908V36H129.325ZM143.058 36.2007C141.491 36.2007 140.096 35.8662 138.873 35.1973C137.65 34.5093 136.685 33.5729 135.977 32.388C135.27 31.2031 134.917 29.8558 134.917 28.346C134.917 26.8171 135.27 25.4698 135.977 24.304C136.685 23.1191 137.65 22.1922 138.873 21.5233C140.096 20.8544 141.491 20.52 143.058 20.52C144.644 20.52 146.049 20.8544 147.272 21.5233C148.514 22.1922 149.479 23.1096 150.167 24.2753C150.875 25.4411 151.228 26.798 151.228 28.346C151.228 29.8558 150.875 31.2031 150.167 32.388C149.479 33.5729 148.514 34.5093 147.272 35.1973C146.049 35.8662 144.644 36.2007 143.058 36.2007ZM143.058 33.1333C143.937 33.1333 144.721 32.9422 145.409 32.56C146.097 32.1778 146.632 31.6236 147.014 30.8973C147.415 30.1711 147.616 29.3207 147.616 28.346C147.616 27.3522 147.415 26.5018 147.014 25.7947C146.632 25.0684 146.097 24.5142 145.409 24.132C144.721 23.7498 143.947 23.5587 143.087 23.5587C142.208 23.5587 141.424 23.7498 140.736 24.132C140.067 24.5142 139.532 25.0684 139.131 25.7947C138.729 26.5018 138.529 27.3522 138.529 28.346C138.529 29.3207 138.729 30.1711 139.131 30.8973C139.532 31.6236 140.067 32.1778 140.736 32.56C141.424 32.9422 142.198 33.1333 143.058 33.1333ZM162.457 36V32.904L162.256 32.2447V26.8267C162.256 25.7756 161.941 24.9633 161.31 24.39C160.679 23.7976 159.724 23.5013 158.443 23.5013C157.583 23.5013 156.733 23.6351 155.892 23.9027C155.07 24.1702 154.373 24.5429 153.799 25.0207L152.395 22.412C153.217 21.7813 154.191 21.3131 155.319 21.0073C156.465 20.6824 157.65 20.52 158.873 20.52C161.09 20.52 162.801 21.0551 164.005 22.1253C165.228 23.1764 165.839 24.8104 165.839 27.0273V36H162.457ZM157.641 36.2007C156.494 36.2007 155.491 36.0096 154.631 35.6273C153.771 35.226 153.102 34.6813 152.624 33.9933C152.165 33.2862 151.936 32.4931 151.936 31.614C151.936 30.754 152.137 29.98 152.538 29.292C152.959 28.604 153.637 28.0593 154.573 27.658C155.51 27.2567 156.752 27.056 158.3 27.056H162.743V29.4353H158.558C157.335 29.4353 156.513 29.636 156.093 30.0373C155.672 30.4196 155.462 30.8973 155.462 31.4707C155.462 32.1204 155.72 32.6364 156.236 33.0187C156.752 33.4009 157.469 33.592 158.386 33.592C159.265 33.592 160.049 33.3913 160.737 32.99C161.444 32.5887 161.95 31.9962 162.256 31.2127L162.858 33.3627C162.514 34.2609 161.893 34.9584 160.995 35.4553C160.116 35.9522 158.998 36.2007 157.641 36.2007ZM175.511 36.2007C174.04 36.2007 172.712 35.8758 171.527 35.226C170.361 34.5571 169.444 33.6398 168.775 32.474C168.106 31.3082 167.771 29.9322 167.771 28.346C167.771 26.7598 168.106 25.3838 168.775 24.218C169.444 23.0522 170.361 22.1444 171.527 21.4947C172.712 20.8449 174.04 20.52 175.511 20.52C176.792 20.52 177.939 20.8067 178.951 21.38C179.964 21.9342 180.767 22.7847 181.359 23.9313C181.952 25.078 182.248 26.5496 182.248 28.346C182.248 30.1233 181.961 31.5949 181.388 32.7607C180.815 33.9073 180.022 34.7673 179.009 35.3407C177.996 35.914 176.83 36.2007 175.511 36.2007ZM175.941 33.1333C176.801 33.1333 177.566 32.9422 178.235 32.56C178.923 32.1778 179.467 31.6236 179.869 30.8973C180.289 30.1711 180.499 29.3207 180.499 28.346C180.499 27.3522 180.289 26.5018 179.869 25.7947C179.467 25.0684 178.923 24.5142 178.235 24.132C177.566 23.7498 176.801 23.5587 175.941 23.5587C175.081 23.5587 174.307 23.7498 173.619 24.132C172.951 24.5142 172.406 25.0684 171.985 25.7947C171.584 26.5018 171.383 27.3522 171.383 28.346C171.383 29.3207 171.584 30.1711 171.985 30.8973C172.406 31.6236 172.951 32.1778 173.619 32.56C174.307 32.9422 175.081 33.1333 175.941 33.1333ZM180.585 36V32.388L180.729 28.3173L180.442 24.2467V14.7293H183.997V36H180.585ZM194.113 36V15.9333H202.369C204.146 15.9333 205.666 16.22 206.927 16.7933C208.207 17.3667 209.192 18.1884 209.88 19.2587C210.568 20.3289 210.912 21.5998 210.912 23.0713C210.912 24.5429 210.568 25.8138 209.88 26.884C209.192 27.9542 208.207 28.776 206.927 29.3493C205.666 29.9227 204.146 30.2093 202.369 30.2093H196.177L197.84 28.4607V36H194.113ZM197.84 28.862L196.177 27.056H202.197C203.841 27.056 205.073 26.712 205.895 26.024C206.736 25.3169 207.156 24.3327 207.156 23.0713C207.156 21.7909 206.736 20.8067 205.895 20.1187C205.073 19.4307 203.841 19.0867 202.197 19.0867H196.177L197.84 17.252V28.862ZM219.279 36.2007C217.807 36.2007 216.479 35.8758 215.294 35.226C214.128 34.5571 213.211 33.6398 212.542 32.474C211.873 31.3082 211.539 29.9322 211.539 28.346C211.539 26.7598 211.873 25.3838 212.542 24.218C213.211 23.0522 214.128 22.1444 215.294 21.4947C216.479 20.8449 217.807 20.52 219.279 20.52C220.559 20.52 221.706 20.8067 222.719 21.38C223.731 21.9342 224.534 22.7847 225.127 23.9313C225.719 25.078 226.015 26.5496 226.015 28.346C226.015 30.1233 225.729 31.5949 225.155 32.7607C224.582 33.9073 223.789 34.7673 222.776 35.3407C221.763 35.914 220.597 36.2007 219.279 36.2007ZM219.709 33.1333C220.569 33.1333 221.333 32.9422 222.002 32.56C222.69 32.1778 223.235 31.6236 223.636 30.8973C224.056 30.1711 224.267 29.3207 224.267 28.346C224.267 27.3522 224.056 26.5018 223.636 25.7947C223.235 25.0684 222.69 24.5142 222.002 24.132C221.333 23.7498 220.569 23.5587 219.709 23.5587C218.849 23.5587 218.075 23.7498 217.387 24.132C216.718 24.5142 216.173 25.0684 215.753 25.7947C215.351 26.5018 215.151 27.3522 215.151 28.346C215.151 29.3207 215.351 30.1711 215.753 30.8973C216.173 31.6236 216.718 32.1778 217.387 32.56C218.075 32.9422 218.849 33.1333 219.709 33.1333ZM224.353 36V32.388L224.496 28.3173L224.209 24.2467V14.7293H227.764V36H224.353ZM231.534 36V19.832C231.534 18.2267 232.002 16.9462 232.939 15.9907C233.894 15.016 235.251 14.5287 237.01 14.5287C237.64 14.5287 238.233 14.5956 238.787 14.7293C239.36 14.8631 239.838 15.0733 240.22 15.36L239.246 18.0547C238.978 17.8444 238.672 17.6916 238.328 17.596C237.984 17.4813 237.631 17.424 237.268 17.424C236.522 17.424 235.958 17.6342 235.576 18.0547C235.194 18.456 235.003 19.0676 235.003 19.8893V21.6093L235.118 23.2147V36H231.534ZM229.012 23.6733V20.8067H239.217V23.6733H229.012Z" fill="white"/>
</g>
</g>
<defs>
<filter id="filter0_d_1_2" x="46.6947" y="14.5287" width="194.526" height="23.672" filterUnits="userSpaceOnUse" color-interpolation-filters="sRGB">
<feFlood flood-opacity="0" result="BackgroundImageFix"/>
<feColorMatrix in="SourceAlpha" type="matrix" values="0 0 0 0 0 0 0 0 0 0 0 0 0 0 0 0 0 0 127 0" result="hardAlpha"/>
<feOffset dy="1"/>
<feGaussianBlur stdDeviation="0.5"/>
<feComposite in2="hardAlpha" operator="out"/>
<feColorMatrix type="matrix" values="0 0 0 0 0 0 0 0 0 0 0 0 0 0 0 0 0 0 0.8 0"/>
<feBlend mode="normal" in2="BackgroundImageFix" result="effect1_dropShadow_1_2"/>
<feBlend mode="normal" in="SourceGraphic" in2="effect1_dropShadow_1_2" result="shape"/>
</filter>
<radialGradient id="paint0_radial_1_2" cx="0" cy="0" r="1" gradientUnits="userSpaceOnUse" gradientTransform="translate(146 25.5) rotate(90) scale(25.5 177.276)">
<stop offset="0.711316" stop-color="#B58A8A"/>
<stop offset="1" stop-color="#B58A8A" stop-opacity="0.66"/>
</radialGradient>
<linearGradient id="paint1_linear_1_2" x1="19.283" y1="2.34962e-06" x2="184.757" y2="139.494" gradientUnits="userSpaceOnUse">
<stop stop-color="#B58A8A"/>
<stop offset="1" stop-color="#B58A8A" stop-opacity="0"/>
</linearGradient>
<linearGradient id="paint2_linear_1_2" x1="2.75485" y1="12.0417" x2="257.006" y2="169.736" gradientUnits="userSpaceOnUse">
<stop stop-color="#B58A8A"/>
<stop offset="0.0932979" stop-color="#A37C7C"/>
<stop offset="0.230387" stop-color="#F7D6D6"/>
<stop offset="0.678823" stop-color="#B58A8A"/>
<stop offset="0.799224" stop-color="#F7D6D6"/>
<stop offset="0.835628" stop-color="#B58A8A"/>
</linearGradient>
<linearGradient id="paint3_linear_1_2" x1="146" y1="4.25" x2="146" y2="46.75" gradientUnits="userSpaceOnUse">
<stop stop-color="#F2D56B" stop-opacity="0.59"/>
<stop offset="0.552083" stop-color="#F7C746" stop-opacity="0.705938"/>
<stop offset="1" stop-color="#FBBC28" stop-opacity="0.8"/>
</linearGradient>
<linearGradient id="paint4_linear_1_2" x1="146" y1="4.25" x2="146" y2="46.75" gradientUnits="userSpaceOnUse">
<stop offset="0.0894782" stop-color="white"/>
<stop offset="0.253047" stop-color="white"/>
<stop offset="0.99481" stop-color="white"/>
</linearGradient>
<clipPath id="clip0_1_2">
<rect width="292" height="51" fill="white"/>
</clipPath>
</defs>
</svg>
